<?xml version="1.0" standalone="no"?>
<!DOCTYPE svg PUBLIC "-//W3C//DTD SVG 20010904//EN"
 "http://www.w3.org/TR/2001/REC-SVG-20010904/DTD/svg10.dtd">
<svg version="1.0" xmlns="http://www.w3.org/2000/svg"
 width="915.000000pt" height="657.000000pt" viewBox="0 0 915.000000 657.000000"
 preserveAspectRatio="xMidYMid meet">
<metadata>
Created by potrace 1.13, written by Peter Selinger 2001-2015
</metadata>
<g transform="translate(0.000000,657.000000) scale(0.100000,-0.100000)"
fill="#000000" stroke="none">
<path d="M4199 4567 c-85 -24 -138 -82 -172 -192 -17 -57 -21 -95 -21 -200 0
-196 38 -303 132 -369 37 -26 54 -31 118 -34 98 -5 150 14 204 75 64 73 85
155 85 328 0 162 -16 233 -70 306 -57 79 -173 115 -276 86z m157 -97 c38 -24
73 -90 77 -145 l2 -38 -159 -73 c-87 -41 -163 -74 -169 -74 -13 0 0 151 20
220 10 37 27 66 53 92 34 34 43 38 90 38 36 0 63 -7 86 -20z m91 -354 c-10
-155 -57 -243 -138 -261 -83 -18 -154 32 -182 131 -9 32 -13 62 -9 66 7 7 321
156 331 157 2 1 1 -41 -2 -93z"/>
<path d="M4897 4566 c-138 -37 -204 -182 -194 -426 11 -256 95 -369 273 -370
87 0 143 26 191 89 87 114 107 382 41 558 -26 71 -100 137 -169 152 -62 14
-81 13 -142 -3z m179 -119 c34 -37 73 -142 58 -157 -10 -9 -320 -150 -330
-150 -16 0 6 192 28 247 32 80 72 106 152 101 52 -4 63 -8 92 -41z m65 -356
c-12 -107 -42 -183 -85 -214 -42 -30 -123 -31 -163 -1 -32 23 -71 95 -79 145
l-6 34 169 77 c123 57 169 73 171 63 2 -8 -1 -54 -7 -104z"/>
<path d="M5603 4571 c-83 -21 -150 -92 -180 -189 -25 -80 -25 -333 -1 -412 42
-136 123 -200 252 -200 159 0 242 98 266 313 25 226 -33 407 -151 467 -44 23
-138 33 -186 21z m130 -92 c45 -23 68 -54 87 -118 11 -35 17 -68 13 -71 -8 -8
-321 -150 -329 -150 -9 0 -4 131 7 182 16 74 44 125 82 148 36 22 106 26 140
9z m105 -371 c-8 -163 -53 -243 -146 -255 -73 -10 -142 42 -171 126 -24 72
-25 70 152 153 89 42 164 76 166 77 2 1 1 -45 -1 -101z"/>
<path d="M3561 4529 c-28 -38 -73 -57 -151 -66 l-60 -6 0 -33 0 -34 100 0 100
0 0 -260 0 -260 -100 0 -100 0 0 -45 0 -45 230 0 230 0 0 45 0 45 -80 0 -80 0
0 345 0 345 -33 0 c-26 0 -39 -7 -56 -31z"/>
<path d="M3486 2786 c-53 -20 -104 -72 -117 -120 -13 -48 -5 -94 27 -165 13
-30 21 -57 16 -60 -5 -3 -24 -16 -44 -28 -45 -29 -84 -85 -99 -145 -18 -66 0
-142 48 -198 50 -58 101 -80 188 -80 77 0 128 18 182 64 l31 26 34 -40 c33
-41 34 -41 95 -38 l61 3 -68 85 -68 86 19 79 c10 44 19 99 19 123 l0 42 -44 0
-44 0 -7 -70 c-4 -39 -10 -72 -14 -74 -4 -3 -27 21 -52 52 -77 98 -76 86 -17
126 78 52 103 94 103 175 0 76 -23 118 -77 144 -50 24 -127 29 -172 13z m118
-87 c31 -14 50 -59 41 -97 -8 -40 -87 -112 -123 -112 -18 0 -55 84 -56 128 -1
36 4 48 27 68 30 26 71 31 111 13z m-35 -431 l90 -113 -38 -37 c-122 -116
-301 9 -241 168 11 27 74 94 90 94 4 0 49 -51 99 -112z"/>
<path d="M4213 2791 c-54 -14 -121 -60 -151 -104 -114 -165 -101 -484 25 -619
59 -62 110 -81 206 -77 61 4 83 10 123 34 91 57 142 165 151 320 13 212 -58
379 -183 431 -42 18 -130 25 -171 15z m160 -116 c15 -11 39 -44 54 -74 24 -49
28 -69 31 -179 4 -97 1 -138 -13 -189 -38 -138 -150 -192 -261 -124 -76 46
-114 231 -83 406 13 76 44 132 89 163 29 20 45 23 95 20 39 -2 70 -11 88 -23z"/>
<path d="M4720 2390 l0 -390 50 0 50 0 0 327 c0 182 4 323 9 318 4 -6 61 -153
126 -327 l118 -318 78 0 79 0 0 390 0 390 -55 0 -55 0 -2 -320 -3 -321 -120
321 -120 320 -77 0 -78 0 0 -390z"/>
<path d="M5440 2390 l0 -390 235 0 235 0 0 50 0 50 -180 0 -180 0 0 130 0 130
170 0 170 0 0 45 0 45 -170 0 -170 0 0 120 0 120 180 0 180 0 0 45 0 45 -235
0 -235 0 0 -390z"/>
</g>
</svg>
